<svg xmlns="http://www.w3.org/2000/svg" width="250" height="48" viewBox="0 0 250 48">
    <path fill="#21EDCE" fill-rule="evenodd" d="M34.46 30.353a44.863 44.863 0 0 1-1.508 6.128A18.664 18.664 0 0 1 30 42.161c-1.305 1.71-3.059 3.112-5.262 4.203C22.535 47.454 19.722 48 16.299 48c-4.235 0-7.743-1.005-10.524-3.016-2.78-2.01-4.705-4.834-5.775-8.47L13.604 31.7c.129.727.428 1.369.899 1.925.47.556 1.133.834 1.989.834.984 0 1.69-.364 2.118-1.091.427-.727.748-1.647.962-2.76L24.77 1.284h14.888l-5.198 29.07zm29.198 17.519c-3.637 0-6.856-.503-9.658-1.508-2.802-1.006-5.155-2.428-7.059-4.268-1.904-1.84-3.347-4.021-4.331-6.545-.984-2.524-1.476-5.305-1.476-8.342 0-3.765.663-7.295 1.989-10.589 1.326-3.294 3.187-6.16 5.583-8.599C51.102 5.583 54 3.658 57.4 2.246 60.802.834 64.578.128 68.727.128c3.68 0 6.92.503 9.722 1.508 2.802 1.006 5.155 2.428 7.059 4.268 1.904 1.84 3.348 4.021 4.332 6.545s1.476 5.305 1.476 8.342c0 3.765-.653 7.295-1.958 10.589-1.305 3.294-3.165 6.16-5.583 8.599-2.417 2.438-5.326 4.363-8.727 5.775-3.401 1.412-7.198 2.118-11.39 2.118zm12.192-25.99a9.456 9.456 0 0 0-.545-3.24A7.512 7.512 0 0 0 73.7 16.01c-.706-.749-1.583-1.337-2.631-1.765-1.049-.428-2.236-.642-3.562-.642-1.668 0-3.176.353-4.524 1.06a10.902 10.902 0 0 0-3.433 2.79c-.941 1.156-1.669 2.482-2.182 3.98a13.96 13.96 0 0 0-.77 4.555c0 1.155.182 2.236.545 3.24a7.512 7.512 0 0 0 1.605 2.632c.706.749 1.583 1.337 2.63 1.765 1.049.427 2.257.641 3.626.641 1.669 0 3.166-.342 4.492-1.026a10.63 10.63 0 0 0 3.401-2.76c.942-1.155 1.669-2.481 2.182-3.978a14.15 14.15 0 0 0 .77-4.62zm41.262 25.99c-3.636 0-6.855-.503-9.657-1.508-2.803-1.006-5.156-2.428-7.06-4.268-1.903-1.84-3.347-4.021-4.33-6.545-.985-2.524-1.477-5.305-1.477-8.342 0-3.765.663-7.295 1.99-10.589 1.326-3.294 3.187-6.16 5.582-8.599 2.396-2.438 5.295-4.363 8.696-5.775 3.4-1.412 7.176-2.118 11.326-2.118 3.679 0 6.92.503 9.722 1.508 2.802 1.006 5.155 2.428 7.059 4.268 1.903 1.84 3.347 4.021 4.331 6.545.984 2.524 1.476 5.305 1.476 8.342 0 3.765-.652 7.295-1.957 10.589-1.305 3.294-3.166 6.16-5.583 8.599-2.417 2.438-5.326 4.363-8.727 5.775-3.401 1.412-7.198 2.118-11.39 2.118zm12.193-25.99a9.456 9.456 0 0 0-.546-3.24 7.512 7.512 0 0 0-1.604-2.631c-.706-.749-1.583-1.337-2.63-1.765-1.05-.428-2.236-.642-3.562-.642-1.669 0-3.177.353-4.524 1.06a10.902 10.902 0 0 0-3.434 2.79c-.94 1.156-1.668 2.482-2.181 3.98a13.96 13.96 0 0 0-.77 4.555c0 1.155.181 2.236.545 3.24a7.512 7.512 0 0 0 1.604 2.632c.706.749 1.583 1.337 2.631 1.765 1.048.427 2.257.641 3.626.641 1.668 0 3.166-.342 4.492-1.026a10.63 10.63 0 0 0 3.4-2.76c.942-1.155 1.67-2.481 2.183-3.978a14.15 14.15 0 0 0 .77-4.62zm45.048 24.835l-9.947-19.123h-.128l-3.337 19.123h-14.438l8.021-45.434h14.374l-3.08 17.39h.193l14.374-17.39h18.096L178.075 23.23l14.053 23.487h-17.775zm49.54-31.893c-.727-.856-1.668-1.551-2.823-2.086-1.156-.535-2.503-.802-4.043-.802-1.198 0-2.278.257-3.24.77-.963.513-1.445 1.305-1.445 2.374 0 .856.407 1.519 1.22 1.99.812.47 2.01.962 3.593 1.475 1.968.642 3.722 1.37 5.262 2.182 1.54.813 2.845 1.754 3.915 2.824a11.396 11.396 0 0 1 2.47 3.658c.578 1.369.866 2.909.866 4.62 0 2.909-.641 5.39-1.925 7.444-1.283 2.053-2.92 3.722-4.909 5.005-1.99 1.284-4.182 2.225-6.577 2.824-2.396.599-4.728.898-6.995.898-1.797 0-3.594-.15-5.39-.45a33.161 33.161 0 0 1-5.166-1.283 27.635 27.635 0 0 1-4.653-2.053c-1.454-.813-2.716-1.733-3.786-2.76l10.14-9.368a8.535 8.535 0 0 0 1.86 1.604c.728.47 1.487.866 2.278 1.187.792.32 1.594.578 2.407.77.813.193 1.561.289 2.246.289 1.497 0 2.695-.246 3.593-.738.899-.492 1.348-1.209 1.348-2.15 0-.77-.374-1.454-1.123-2.053-.749-.6-2.15-1.22-4.203-1.861a35.291 35.291 0 0 1-4.588-1.797c-1.434-.685-2.674-1.508-3.722-2.47a10.355 10.355 0 0 1-2.47-3.466c-.6-1.348-.9-2.984-.9-4.909 0-2.353.482-4.535 1.445-6.545.962-2.011 2.331-3.754 4.106-5.23 1.776-1.476 3.894-2.631 6.353-3.466C211.497.417 214.203 0 217.155 0c1.626 0 3.23.139 4.813.417 1.583.278 3.08.663 4.492 1.155a23.37 23.37 0 0 1 3.914 1.765c1.198.684 2.204 1.454 3.016 2.31l-9.497 9.177zm16.685 32.663c-1.198 0-2.279-.182-3.241-.546-.963-.363-1.775-.866-2.439-1.508a6.988 6.988 0 0 1-1.54-2.182 6.216 6.216 0 0 1-.545-2.567c0-1.24.214-2.406.642-3.497a8.487 8.487 0 0 1 1.828-2.855 8.706 8.706 0 0 1 2.824-1.926c1.09-.47 2.3-.705 3.626-.705 1.155 0 2.203.181 3.144.545.941.364 1.743.866 2.406 1.508a7.464 7.464 0 0 1 1.573 2.182c.385.813.577 1.668.577 2.567 0 1.24-.214 2.406-.642 3.497a8.748 8.748 0 0 1-1.796 2.856 8.347 8.347 0 0 1-2.792 1.925c-1.09.47-2.3.706-3.625.706z"/>
</svg>
